Coordinates
version=1
nRows=16
nColumns=40
inDegrees=yes

Units are S.I. units (second, meters, Newtons, ...)
If the header above contains a line with 'inDegrees', this indicates whether rotational values are in degrees (yes) or radians (no).

endheader
time	pelvis_tilt	pelvis_list	pelvis_rotation	pelvis_tx	pelvis_ty	pelvis_tz	hip_flexion_r	hip_adduction_r	hip_rotation_r	knee_angle_r	knee_angle_r_beta	ankle_angle_r	subtalar_angle_r	mtp_angle_r	hip_flexion_l	hip_adduction_l	hip_rotation_l	knee_angle_l	knee_angle_l_beta	ankle_angle_l	subtalar_angle_l	mtp_angle_l	lumbar_extension	lumbar_bending	lumbar_rotation	arm_flex_r	arm_add_r	arm_rot_r	elbow_flex_r	pro_sup_r	wrist_flex_r	wrist_dev_r	arm_flex_l	arm_add_l	arm_rot_l	elbow_flex_l	pro_sup_l	wrist_flex_l	wrist_dev_l
      1.03000000	     -0.86226360	    -10.44804339	     80.43887629	      0.22051965	      0.94456009	      0.98063117	    -10.73771088	      0.29566014	      8.99668612	      9.23609139	      0.16120020	     13.15795757	      0.00000000	      0.00000000	     35.08180657	     -4.11424962	     -7.20383320	      0.33072158	      0.00577218	     -4.18022675	      0.00000000	      0.00000000	      4.13354046	     -2.26505204	      6.22851235	      0.00000000	      0.00000000	      0.00000000	      0.00000000	      0.00000000	      0.00000000	      0.00000000	      0.00000000	      0.00000000	      0.00000000	      0.00000000	      0.00000000	      0.00000000	      0.00000000
      1.04000000	     -1.36160495	    -10.62987270	     80.26271308	      0.21948103	      0.94382564	      0.96633716	    -10.76420009	     -0.38561389	      8.78640596	     10.07282309	      0.17580393	     12.10080243	      0.00000000	      0.00000000	     35.12814792	     -3.61759702	     -7.51718892	      1.22593144	      0.02139654	     -5.47981590	      0.00000000	      0.00000000	      4.55064945	     -2.79433950	      6.30171842	      0.00000000	      0.00000000	      0.00000000	      0.00000000	      0.00000000	      0.00000000	      0.00000000	      0.00000000	      0.00000000	      0.00000000	      0.00000000	      0.00000000	      0.00000000	      0.00000000
      1.05000000	     -1.81769043	    -10.75777889	     80.15082673	      0.21842933	      0.94348689	      0.95201817	    -10.73225918	     -0.97478264	      8.75784476	     11.09646519	      0.19366985	     11.07970155	      0.00000000	      0.00000000	     35.11303781	     -3.12234505	     -7.49317363	      2.18881476	      0.03820202	     -6.45706451	      0.00000000	      0.00000000	      4.89393110	     -3.28716879	      6.32256356	      0.00000000	      0.00000000	      0.00000000	      0.00000000	      0.00000000	      0.00000000	      0.00000000	      0.00000000	      0.00000000	      0.00000000	      0.00000000	      0.00000000	      0.00000000	      0.00000000
      1.06000000	     -2.57124135	    -10.95647771	     80.06031756	      0.21709170	      0.94330109	      0.93744435	    -10.42384782	     -1.90336396	      8.02674432	     12.34461836	      0.21545424	      9.39250288	      0.00000000	      0.00000000	     35.09761503	     -2.31386992	     -8.09423378	      2.92550682	      0.05105973	     -8.29639542	      0.00000000	      0.00000000	      5.41732172	     -4.08816466	      6.28216321	      0.00000000	      0.00000000	      0.00000000	      0.00000000	      0.00000000	      0.00000000	      0.00000000	      0.00000000	      0.00000000	      0.00000000	      0.00000000	      0.00000000	      0.00000000	      0.00000000
      1.07000000	     -3.25643737	    -11.07350762	     80.03591947	      0.21571006	      0.94357428	      0.92294506	    -10.06932604	     -2.72747927	      7.48906691	     13.80124379	      0.24087715	      7.72063731	     -0.00000000	     -0.00000000	     35.01421357	     -1.52639782	     -8.33264534	      3.75797606	      0.06558906	     -9.59793747	     -0.00000000	     -0.00000000	      5.81227868	     -4.83953999	      6.17299106	      0.00000000	      0.00000000	     -0.00000000	      0.00000000	      0.00000000	      0.00000000	      0.00000000	     -0.00000000	      0.00000000	      0.00000000	      0.00000000	      0.00000000	      0.00000000	      0.00000000
      1.08000000	     -3.99243222	    -11.15818599	     80.06528134	      0.21423744	      0.94418979	      0.90845514	     -9.58050434	     -3.59386903	      6.85149105	     15.48753683	      0.27030851	      5.82389289	      0.00000000	      0.00000000	     34.90461537	     -0.65021016	     -8.52167428	      4.60598830	      0.08038966	    -10.73080609	      0.00000000	      0.00000000	      6.16785540	     -5.66141670	      6.00365490	      0.00000000	      0.00000000	      0.00000000	      0.00000000	      0.00000000	      0.00000000	      0.00000000	      0.00000000	      0.00000000	      0.00000000	      0.00000000	      0.00000000	      0.00000000	      0.00000000
      1.09000000	     -4.74832177	    -11.19952233	     80.16532246	      0.21266095	      0.94514564	      0.89396094	     -8.98708890	     -4.47541543	      6.15281253	     17.39288315	      0.30356308	      3.73515237	     -0.00000000	     -0.00000000	     34.75338526	      0.28765945	     -8.65048963	      5.48325904	      0.09570092	    -11.59776386	      0.00000000	      0.00000000	      6.47895860	     -6.53003303	      5.77745760	     -0.00000000	     -0.00000000	      0.00000000	      0.00000000	      0.00000000	      0.00000000	     -0.00000000	     -0.00000000	     -0.00000000	     -0.00000000	      0.00000000	      0.00000000	     -0.00000000	      0.00000000
      1.10000000	     -5.50074601	    -11.18380908	     80.30291797	      0.21093701	      0.94641106	      0.87955570	     -8.27663201	     -5.37083407	      5.42374548	     19.54278683	      0.34108598	      1.45577694	      0.00000000	      0.00000000	     34.55382982	      1.26081341	     -8.71565115	      6.40140066	      0.11172552	    -12.14152500	      0.00000000	      0.00000000	      6.69549254	     -7.36451091	      5.48945527	      0.00000000	      0.00000000	      0.00000000	      0.00000000	      0.00000000	      0.00000000	      0.00000000	      0.00000000	      0.00000000	      0.00000000	      0.00000000	      0.00000000	      0.00000000	      0.00000000
      1.11000000	     -6.21750576	    -11.10591641	     80.47609452	      0.20913225	      0.94797674	      0.86527431	     -7.46345359	     -6.24680715	      4.70704537	     21.92428693	      0.38265099	     -0.94725089	      0.00000000	      0.00000000	     34.28703196	      2.23072194	     -8.71110077	      7.35148700	      0.12830765	    -12.34578058	      0.00000000	      0.00000000	      6.80929018	     -8.15628814	      5.15131019	      0.00000000	      0.00000000	      0.00000000	      0.00000000	      0.00000000	      0.00000000	      0.00000000	      0.00000000	      0.00000000	      0.00000000	      0.00000000	      0.00000000	      0.00000000	      0.00000000
      1.12000000	     -6.91895374	    -10.99932287	     80.70064592	      0.20736328	      0.94975973	      0.85114414	     -6.54871431	     -7.09347319	      4.04405805	     24.47299831	      0.42713440	     -3.38730624	      0.00000000	     -0.00000000	     33.99507787	      3.21305042	     -8.63081588	      8.33103764	      0.14540404	    -12.26647212	     -0.00000000	      0.00000000	      6.88798040	     -9.00204455	      4.79652302	      0.00000000	      0.00000000	     -0.00000000	      0.00000000	      0.00000000	      0.00000000	      0.00000000	      0.00000000	      0.00000000	      0.00000000	      0.00000000	      0.00000000	     -0.00000000	     -0.00000000
      1.13000000	     -7.53851178	    -10.82869800	     80.92711305	      0.20554098	      0.95175655	      0.83720524	     -5.54042840	     -7.88737244	      3.44433772	     27.22360959	      0.47514162	     -5.79555221	      0.00000000	     -0.00000000	     33.60252204	      4.13392807	     -8.50155977	      9.29829808	      0.16228592	    -11.87312463	      0.00000000	      0.00000000	      6.84626495	     -9.71191663	      4.40811779	      0.00000000	     -0.00000000	     -0.00000000	      0.00000000	      0.00000000	     -0.00000000	      0.00000000	      0.00000000	     -0.00000000	     -0.00000000	      0.00000000	      0.00000000	      0.00000000	      0.00000000
      1.14000000	     -8.07462772	    -10.62704458	     81.15213769	      0.20374459	      0.95388787	      0.82355995	     -4.42116689	     -8.59695198	      2.97455563	     30.12500438	      0.52578051	     -8.03150420	      0.00000000	      0.00000000	     33.15106867	      4.98313160	     -8.31776816	     10.24113001	      0.17874144	    -11.24758568	      0.00000000	      0.00000000	      6.73041800	    -10.32559914	      4.02080628	      0.00000000	      0.00000000	      0.00000000	      0.00000000	      0.00000000	      0.00000000	      0.00000000	      0.00000000	      0.00000000	      0.00000000	      0.00000000	      0.00000000	      0.00000000	      0.00000000
      1.15000000	     -8.52477960	    -10.40192782	     81.37247184	      0.20193079	      0.95610544	      0.81019060	     -3.20373422	     -9.22029234	      2.61791598	     33.12841088	      0.57819985	    -10.01906116	      0.00000000	      0.00000000	     32.63099143	      5.75970039	     -8.10428205	     11.12949060	      0.19424626	    -10.42650540	      0.00000000	      0.00000000	      6.54923226	    -10.82293933	      3.63874954	      0.00000000	      0.00000000	      0.00000000	      0.00000000	      0.00000000	      0.00000000	      0.00000000	      0.00000000	      0.00000000	      0.00000000	      0.00000000	      0.00000000	      0.00000000	      0.00000000
      1.16000000	     -8.60759910	     -9.93205092	     81.62188688	      0.20045359	      0.95880274	      0.79707431	     -2.26377026	     -9.37703907	      2.63565594	     36.02402804	      0.62873790	    -11.38243384	      0.00000000	      0.00000000	     31.73270578	      6.20431821	     -7.81643250	     11.91346250	      0.20792915	     -9.78879261	      0.00000000	     -0.00000000	      5.98446775	    -10.95721616	      3.27611037	      0.00000000	      0.00000000	     -0.00000000	      0.00000000	      0.00000000	     -0.00000000	     -0.00000000	      0.00000000	     -0.00000000	      0.00000000	      0.00000000	      0.00000000	      0.00000000	     -0.00000000
      1.17000000	     -9.12932758	     -9.81985584	     81.77420503	      0.19843977	      0.96080612	      0.78435284	     -0.63409486	    -10.15438332	      2.21406478	     39.20965413	      0.68433756	    -12.94158741	      0.00000000	      0.00000000	     31.26709575	      7.04874246	     -7.60797496	     12.62677963	      0.22037888	     -8.41033327	      0.00000000	      0.00000000	      5.92972483	    -11.45640353	      2.89110552	      0.00000000	      0.00000000	      0.00000000	      0.00000000	      0.00000000	      0.00000000	      0.00000000	      0.00000000	      0.00000000	      0.00000000	      0.00000000	      0.00000000	      0.00000000	      0.00000000
      1.18000000	     -9.25555199	     -9.68168957	     81.90350813	      0.19681419	      0.96293646	      0.77213401	      0.98299801	    -10.37354589	      2.24114083	     42.29016365	      0.73810260	    -13.64514888	     -0.00000000	     -0.00000000	     30.69678181	      7.46036325	     -7.40907366	     13.28302315	      0.23183249	     -7.37567276	     -0.00000000	     -0.00000000	      5.73256634	    -11.52027041	      2.60440642	      0.00000000	     -0.00000000	     -0.00000000	      0.00000000	      0.00000000	     -0.00000000	     -0.00000000	      0.00000000	      0.00000000	      0.00000000	      0.00000000	      0.00000000	      0.00000000	     -0.00000000
